# xmcd
#
# Track frame offsets:
#	182
#	16485
#	40257
#	57992
#
# Disc length: 979 seconds
#
# Revision: 8
# Processed by: cddbd v1.5.2PL0 Copyright (c) Steve Scherf et al.
# Submitted via: audiograbber 1.83.01
#
DISCID=2d03d104
DTITLE=Tic Tac Toe - Ich Find' Dich Scheisse (Single)
DYEAR=1995
DGENRE=Hip-Hop
TTITLE0=Ich Find' Dich Scheisse (Radio Version)
TTITLE1=Ich Find' Dich Scheisse (Club Mix)
TTITLE2='N Mann
TTITLE3=Ich Find' Dich Scheisse (Rock Version)
EXTD=
EXTT0=
EXTT1=
EXTT2=
EXTT3=
PLAYORDER=
